<?xml version="1.0" encoding="utf-8"?>
<!-- Generator: Adobe Illustrator 26.2.1, SVG Export Plug-In . SVG Version: 6.00 Build 0)  -->
<svg version="1.1" id="Layer_1" xmlns="http://www.w3.org/2000/svg" xmlns:xlink="http://www.w3.org/1999/xlink" x="0px" y="0px"
	 viewBox="0 0 360.6 109" style="enable-background:new 0 0 360.6 109;" xml:space="preserve">
<style type="text/css">
	.st0{fill:#9CB250;}
	.st1{opacity:0.6;fill:#9CB250;}
	.st2{opacity:0.3;fill:#9CB250;}
	.st3{opacity:0.1;fill:#9CB250;}
	.st4{fill:#2C5F8D;}
	.st5{fill:#FFFFFF;}
</style>
<g>
	<g>
		<path class="st0" d="M116.4,58.2v3.7h4.2v-1.3h-2.2v-1h3.5v2c0,1.1-0.3,1.4-1.4,1.4h-4c-1.1,0-1.4-0.3-1.4-1.4v-3.1
			c0-1.1,0.3-1.4,1.4-1.4h4c1.1,0,1.4,0.3,1.4,1.3c0,0,0,0.1,0,0.1l-1.3,0.2v-0.7H116.4z"/>
		<path class="st0" d="M124.7,58.2v3.7h3.6v-1.2l1.3,0.3v0.7c0,1.1-0.3,1.4-1.4,1.4h-3.5c-1.1,0-1.4-0.3-1.4-1.4v-3.1
			c0-1.1,0.3-1.4,1.4-1.4h3.5c1.1,0,1.4,0.3,1.4,1.4v0.6l-1.3,0.2v-1.1H124.7z"/>
		<path class="st0" d="M134.5,63h-1.3v-4.8h-2.7v-1h6.7v1h-2.7V63z"/>
		<path class="st0" d="M139.6,58.2v3.7h3.6v-1.2l1.4,0.3v0.7c0,1.1-0.3,1.4-1.4,1.4h-3.5c-1.1,0-1.4-0.3-1.4-1.4v-3.1
			c0-1.1,0.3-1.4,1.4-1.4h3.5c1.1,0,1.4,0.3,1.4,1.4v0.6l-1.4,0.2v-1.1H139.6z"/>
		<path class="st0" d="M149.6,63h-1.4v-4.8h-2.7v-1h6.7v1h-2.7V63z"/>
		<path class="st0" d="M154.5,58.2v3.7h4.2v-1.3h-2.2v-1h3.5v2c0,1.1-0.3,1.4-1.4,1.4h-4c-1.1,0-1.4-0.3-1.4-1.4v-3.1
			c0-1.1,0.3-1.4,1.4-1.4h4c1.1,0,1.4,0.3,1.4,1.3c0,0,0,0.1,0,0.1l-1.3,0.2v-0.7H154.5z"/>
		<path class="st0" d="M164.7,63h-1.3v-4.8h-2.7v-1h6.7v1h-2.7V63z"/>
		<path class="st0" d="M172.2,63h-1.4v-4.8h-2.7v-1h6.7v1h-2.7V63z"/>
		<path class="st0" d="M177,58.2v3.7h4.2v-1.3h-2.2v-1h3.5v2c0,1.1-0.3,1.4-1.4,1.4h-4c-1.1,0-1.4-0.3-1.4-1.4v-3.1
			c0-1.1,0.3-1.4,1.4-1.4h4c1.1,0,1.4,0.3,1.4,1.3c0,0,0,0.1,0,0.1l-1.3,0.2v-0.7H177z"/>
		<path class="st0" d="M187.3,63h-1.4v-4.8h-2.7v-1h6.7v1h-2.7V63z"/>
		<path class="st0" d="M192.5,57.2h1.3l3.3,5.8h-1.5l-0.7-1.3h-3.7l-0.7,1.3h-1.3L192.5,57.2z M194.4,60.6l-1.2-2.4l-1.3,2.4H194.4z
			"/>
		<path class="st0" d="M200.5,63h-1.3v-4.8h-2.7v-1h6.7v1h-2.7V63z"/>
		<path class="st0" d="M205.4,58.2v3.7h4.2v-1.3h-2.2v-1h3.5v2c0,1.1-0.3,1.4-1.4,1.4h-4c-1.1,0-1.4-0.3-1.4-1.4v-3.1
			c0-1.1,0.3-1.4,1.4-1.4h4c1.1,0,1.4,0.3,1.4,1.3c0,0,0,0.1,0,0.1l-1.3,0.2v-0.7H205.4z"/>
		<path class="st0" d="M213.4,58.2v3.7h4.2v-1.3h-2.2v-1h3.5v2c0,1.1-0.3,1.4-1.4,1.4h-4c-1.1,0-1.4-0.3-1.4-1.4v-3.1
			c0-1.1,0.3-1.4,1.4-1.4h4c1.1,0,1.4,0.3,1.4,1.3c0,0,0,0.1,0,0.1l-1.3,0.2v-0.7H213.4z"/>
		<path class="st0" d="M221.4,58.2v3.7h4.2v-1.3h-2.2v-1h3.5v2c0,1.1-0.3,1.4-1.4,1.4h-4c-1.1,0-1.4-0.3-1.4-1.4v-3.1
			c0-1.1,0.3-1.4,1.4-1.4h4c1.1,0,1.4,0.3,1.4,1.3c0,0,0,0.1,0,0.1l-1.3,0.2v-0.7H221.4z"/>
		<path class="st0" d="M230.9,57.2h1.3l3.3,5.8H234l-0.7-1.3h-3.7l-0.7,1.3h-1.3L230.9,57.2z M232.7,60.6l-1.2-2.4l-1.3,2.4H232.7z"
			/>
		<path class="st0" d="M237.7,58.2v3.7h3.6v-1.2l1.4,0.3v0.7c0,1.1-0.3,1.4-1.4,1.4h-3.5c-1.1,0-1.4-0.3-1.4-1.4v-3.1
			c0-1.1,0.3-1.4,1.4-1.4h3.5c1.1,0,1.4,0.3,1.4,1.4v0.6l-1.4,0.2v-1.1H237.7z"/>
		<path class="st0" d="M246.7,57.2h1.3l3.3,5.8h-1.5l-0.7-1.3h-3.7l-0.7,1.3h-1.4L246.7,57.2z M248.6,60.6l-1.2-2.4l-1.3,2.4H248.6z
			"/>
		<path class="st0" d="M253.6,58.2v3.7h4.2v-1.3h-2.2v-1h3.5v2c0,1.1-0.3,1.4-1.4,1.4h-4c-1.1,0-1.4-0.3-1.4-1.4v-3.1
			c0-1.1,0.3-1.4,1.4-1.4h4c1.1,0,1.4,0.3,1.4,1.3c0,0,0,0.1,0,0.1l-1.3,0.2v-0.7H253.6z"/>
		<path class="st0" d="M261.8,58.2v3.7h4.2v-1.3h-2.2v-1h3.5v2c0,1.1-0.3,1.4-1.4,1.4h-4c-1.1,0-1.4-0.3-1.4-1.4v-3.1
			c0-1.1,0.3-1.4,1.4-1.4h4c1.1,0,1.4,0.3,1.4,1.3c0,0,0,0.1,0,0.1l-1.3,0.2v-0.7H261.8z"/>
		<path class="st0" d="M270.1,58.2v3.7h3.6v-1.2l1.4,0.3v0.7c0,1.1-0.3,1.4-1.4,1.4h-3.5c-1.1,0-1.4-0.3-1.4-1.4v-3.1
			c0-1.1,0.3-1.4,1.4-1.4h3.5c1.1,0,1.4,0.3,1.4,1.4v0.6l-1.4,0.2v-1.1H270.1z"/>
		<path class="st0" d="M279.2,57.2h1.3l3.3,5.8h-1.5l-0.7-1.3h-3.7l-0.7,1.3h-1.4L279.2,57.2z M281,60.6l-1.2-2.4l-1.3,2.4H281z"/>
		<path class="st0" d="M286,58.2v3.7h4.2v-1.3H288v-1h3.5v2c0,1.1-0.3,1.4-1.4,1.4h-4c-1.1,0-1.4-0.3-1.4-1.4v-3.1
			c0-1.1,0.3-1.4,1.4-1.4h4c1.1,0,1.4,0.3,1.4,1.3c0,0,0,0.1,0,0.1l-1.3,0.2v-0.7H286z"/>
		<path class="st0" d="M295.4,57.2h1.3l3.3,5.8h-1.5l-0.7-1.3h-3.7l-0.7,1.3h-1.3L295.4,57.2z M297.3,60.6l-1.2-2.4l-1.3,2.4H297.3z
			"/>
		<path class="st0" d="M302.2,58.2v3.7h3.6v-1.2l1.4,0.3v0.7c0,1.1-0.3,1.4-1.4,1.4h-3.5c-1.1,0-1.4-0.3-1.4-1.4v-3.1
			c0-1.1,0.3-1.4,1.4-1.4h3.5c1.1,0,1.4,0.3,1.4,1.4v0.6l-1.4,0.2v-1.1H302.2z"/>
		<path class="st0" d="M309.7,58.2v3.7h4.2v-1.3h-2.2v-1h3.5v2c0,1.1-0.3,1.4-1.4,1.4h-4c-1.1,0-1.4-0.3-1.4-1.4v-3.1
			c0-1.1,0.3-1.4,1.4-1.4h4c1.1,0,1.4,0.3,1.4,1.3c0,0,0,0.1,0,0.1l-1.3,0.2v-0.7H309.7z"/>
		<path class="st0" d="M317.7,58.2v3.7h3.6v-1.2l1.3,0.3v0.7c0,1.1-0.3,1.4-1.4,1.4h-3.5c-1.1,0-1.4-0.3-1.4-1.4v-3.1
			c0-1.1,0.3-1.4,1.4-1.4h3.5c1.1,0,1.4,0.3,1.4,1.4v0.6l-1.3,0.2v-1.1H317.7z"/>
		<path class="st0" d="M325.1,58.2v3.7h4.2v-1.3h-2.2v-1h3.5v2c0,1.1-0.3,1.4-1.4,1.4h-4c-1.1,0-1.4-0.3-1.4-1.4v-3.1
			c0-1.1,0.3-1.4,1.4-1.4h4c1.1,0,1.4,0.3,1.4,1.3c0,0,0,0.1,0,0.1l-1.3,0.2v-0.7H325.1z"/>
		<path class="st1" d="M335.6,63h-1.3v-4.8h-2.7v-1h6.7v1h-2.7V63z"/>
		<path class="st2" d="M343.1,63h-1.3v-4.8H339v-1h6.7v1h-2.7V63z"/>
		<path class="st3" d="M347.7,58.2v3.7h3.6v-1.2l1.3,0.3v0.7c0,1.1-0.3,1.4-1.4,1.4h-3.5c-1.1,0-1.4-0.3-1.4-1.4v-3.1
			c0-1.1,0.3-1.4,1.4-1.4h3.5c1.1,0,1.4,0.3,1.4,1.4v0.6l-1.3,0.2v-1.1H347.7z"/>
	</g>
	<path class="st0" d="M102.3,54.3c0,26.5-21.5,48-48,48s-48-21.5-48-48s21.5-48,48-48S102.3,27.8,102.3,54.3z M90,61.2l0.5,0.4
		l0.6-1.2c0,0-0.1-0.1-0.1-0.1c-0.8-0.7-1.3-0.5-1.9,0.3l-2.5,3.1c-0.7,0.8-0.7,1.3,0.2,2l2.4,1.9c0.8,0.7,1.3,0.6,2-0.2l2.5-3.1
		c0.7-0.8,0.7-1.3-0.1-2l-1.5-1.3l-2.2,2.7l0.8,0.6l1.4-1.7l1,0.8l-2.7,3.3l-2.8-2.3L90,61.2z M92.4,55.3l0.7-2.6l-1-0.3l-1.8,6.4
		l1,0.3l0.7-2.6l4.6,1.3l0.4-1.3L92.4,55.3z M93.4,46.4l1.1,0l-0.2-1.4l-0.6,0c-1.1,0-1.4,0.3-1.4,1.4l-0.2,3.5
		c0,1.1,0.2,1.4,1.3,1.5l3.1,0.1c1.1,0,1.4-0.3,1.4-1.4l0.2-3.5c0-1.1-0.2-1.4-1.3-1.5l-0.7,0l-0.3,1.3l1.2,0.1l-0.2,3.6L93.3,50
		L93.4,46.4z M91.4,38.5l0.6-0.2l-0.7-1.2c0,0-0.1,0-0.1,0c-1,0.3-1.1,0.8-0.8,1.8l1.3,3.8c0.4,1,0.7,1.3,1.8,0.9l2.9-1
		c1-0.4,1.2-0.8,0.8-1.8L95.9,37c-0.4-1-0.7-1.3-1.8-0.9l-1.9,0.7l1.2,3.3l0.9-0.3l-0.7-2.1l1.2-0.4l1.4,4l-3.5,1.2L91.4,38.5z
		 M87.3,31.6l0.5-0.4l-0.9-1c0,0-0.1,0-0.1,0.1c-0.9,0.6-0.9,1-0.3,1.9l2.2,3.3c0.6,0.9,1,1,1.9,0.4l2.5-1.7c0.9-0.6,1-1,0.4-2
		l-2.2-3.3c-0.6-0.9-1-1-1.9-0.4l-1.7,1.1l1.9,2.9l0.8-0.5l-1.2-1.8l1.1-0.7l2.3,3.5l-3.1,2L87.3,31.6z M90.3,27.5l-0.9-1L88,26.9
		l-2.5-2.7l0.5-1.4l-1-1.1l-2,6.4l0.9,1L90.3,27.5z M86.8,27.2l-2.6,0.7l0.9-2.5L86.8,27.2z M85,21.8l-1-0.8l-1.3,0.6l-2.9-2.3
		l0.3-1.4l-1.2-1l-1.1,6.6l1,0.8L85,21.8z M81.5,21.9L79,23l0.5-2.6L81.5,21.9z M78.8,16.7L77.6,16l-1.2,0.7l-3.2-1.9l0-1.4
		l-1.3-0.8l-0.1,6.7L73,20L78.8,16.7z M75.3,17.4L73,18.8l0.1-2.7L75.3,17.4z M64.9,15l0.4-1L64,13.7l-0.2,0.5
		c-0.4,1-0.2,1.4,0.8,1.8l3.2,1.3c1,0.4,1.4,0.3,1.8-0.7l1.1-2.8c0.4-1,0.2-1.4-0.8-1.8l-3.2-1.3c-1-0.4-1.4-0.3-1.8,0.7L64.7,12
		l1.2,0.8l0.5-1.2l3.4,1.3l-1.3,3.4L64.9,15z M58.7,13.6l-2.6-0.4l-0.2,1l6.6,1l0.2-1l-2.6-0.4l0.7-4.7l-1.3-0.2L58.7,13.6z
		 M51.1,13.6l-2.7,0.2l0.1,1l6.7-0.5l-0.1-1l-2.7,0.2l-0.3-4.7l-1.3,0.1L51.1,13.6z M43.5,14.8l-2.6,0.6l0.2,1l6.5-1.5l-0.2-1
		l-2.6,0.6l-1.1-4.6l-1.3,0.3L43.5,14.8z M36.3,17.3l-2.4,1.1l0.4,0.9l6.1-2.7L40,15.7l-2.4,1.1l-1.9-4.4L34.4,13L36.3,17.3z
		 M28.4,22.2L28,21.6l-0.9,1c0,0,0.1,0.1,0.1,0.1c0.6,0.8,1.1,0.8,1.9,0.2l3.2-2.3c0.9-0.6,1-1.1,0.4-2l-1.8-2.5
		c-0.6-0.9-1.1-0.9-2-0.3l-3.2,2.3c-0.9,0.6-1,1.1-0.4,2l1.2,1.6l2.9-2.1l-0.6-0.8L27,20.2l-0.8-1l3.4-2.5l2.1,3L28.4,22.2z
		 M24,26.5l-1.8,2l0.8,0.7l4.5-5l-0.8-0.7l-1.8,2l-3.5-3.2l-0.9,1L24,26.5z M18.6,34.3L18,34l-0.5,1.3c0,0,0.1,0,0.1,0.1
		c0.9,0.5,1.3,0.3,1.9-0.6l2-3.5c0.6-0.9,0.5-1.4-0.5-1.9l-2.6-1.5c-0.9-0.6-1.4-0.4-1.9,0.5l-2,3.4c-0.6,0.9-0.5,1.4,0.5,1.9l1.7,1
		l1.8-3l-0.9-0.5l-1.1,1.9l-1.1-0.7l2.1-3.6l3.2,1.9L18.6,34.3z M16.1,40.2l-0.9,2.5l1,0.3l2.3-6.3l-1-0.3L16.6,39l-4.5-1.6
		l-0.5,1.3L16.1,40.2z M14,49.2l-0.6-0.1l0,1.3c0,0,0.1,0,0.1,0c1,0.2,1.4-0.2,1.5-1.2l0.7-3.9c0.2-1.1,0-1.5-1.1-1.7l-3-0.5
		c-1.1-0.2-1.4,0.1-1.6,1.2l-0.7,3.9c-0.2,1.1,0,1.5,1.1,1.7l2,0.3l0.6-3.5l-1-0.2l-0.4,2.2l-1.3-0.2l0.7-4.1l3.6,0.6L14,49.2z
		 M13.7,56.5l-1.1,0l0.2,1.4l0.6,0c1.1,0,1.4-0.3,1.4-1.4l0-3.5c0-1.1-0.3-1.4-1.4-1.5l-3.1,0c-1.1,0-1.4,0.3-1.4,1.4l0,3.5
		c0,1.1,0.3,1.4,1.4,1.5l0.7,0l0.3-1.3l-1.2,0l0-3.6l3.7,0L13.7,56.5z M14.5,63.6l-1.1,0.2l0.4,1.3l0.5-0.1c1.1-0.2,1.3-0.6,1.1-1.6
		L15,59.9c-0.2-1.1-0.5-1.4-1.6-1.2l-3,0.5c-1.1,0.2-1.3,0.6-1.1,1.6l0.6,3.4c0.2,1.1,0.5,1.4,1.6,1.2l0.7-0.1l0.1-1.4l-1.2,0.2
		l-0.6-3.6l3.6-0.6L14.5,63.6z M16.3,69.4l0.9,2.5l1-0.4l-2.3-6.3l-1,0.4l0.9,2.5l-4.5,1.6l0.5,1.3L16.3,69.4z M19.7,76.3l1.4,2.3
		L22,78l-3.5-5.7l-0.9,0.5l1.4,2.3L15,77.6l0.7,1.2L19.7,76.3z M25.3,83.4l-0.5,0.4l1.1,0.8c0,0,0.1-0.1,0.1-0.1
		c0.8-0.7,0.7-1.2,0-1.9l-2.7-3c-0.7-0.8-1.2-0.9-2-0.2l-2.3,2c-0.8,0.7-0.8,1.2-0.1,2l2.7,3c0.7,0.8,1.2,0.9,2,0.2l1.5-1.3
		l-2.4-2.6l-0.7,0.7l1.5,1.6l-1,0.9l-2.8-3.1l2.7-2.5L25.3,83.4z M23.4,88.3l1.1,0.8l1.3-0.6l2.9,2.2l-0.2,1.4l1.2,0.9l0.9-6.6
		l-1-0.8L23.4,88.3z M26.9,88l2.5-1.1l-0.4,2.6L26.9,88z M37.5,91.7l-0.3,0.6l1.3,0.4c0,0,0-0.1,0.1-0.1c0.5-0.9,0.3-1.3-0.7-1.8
		l-3.6-1.8c-1-0.5-1.4-0.4-1.9,0.6L31,92.2c-0.5,1-0.3,1.4,0.7,1.9l3.6,1.8c1,0.5,1.4,0.4,1.9-0.6l0.9-1.8L34.9,92l-0.4,0.9l2,1
		L35.9,95l-3.8-1.9l1.7-3.3L37.5,91.7z M44.9,94.2l-0.2,0.6l1.3,0.1c0,0,0-0.1,0-0.1c0.3-1,0-1.4-1-1.7L41.2,92
		c-1-0.3-1.5-0.1-1.8,0.9l-0.8,2.9c-0.3,1,0,1.4,1,1.7l3.8,1.1c1,0.3,1.5,0.1,1.8-0.9l0.5-1.9l-3.4-1l-0.3,1l2.1,0.6l-0.4,1.2
		l-4.1-1.2l1-3.5L44.9,94.2z M51,95.1l2.7,0.2l0.1-1l-6.7-0.6l-0.1,1l2.6,0.2l-0.4,4.7l1.3,0.1L51,95.1z M60.1,94.9l0,0.6l1.3-0.3
		c0,0,0-0.1,0-0.1c-0.1-1-0.5-1.3-1.5-1.2l-4,0.3c-1.1,0.1-1.4,0.4-1.3,1.5l0.2,3c0.1,1.1,0.5,1.3,1.5,1.3l4-0.3
		c1.1-0.1,1.4-0.4,1.3-1.5l-0.2-2L58,96.4l0.1,1l2.2-0.2l0.1,1.3l-4.2,0.3l-0.3-3.7L60.1,94.9z M62.7,99.4l1.3-0.3l0.4-1.4l3.6-0.9
		l1,1.1l1.5-0.4l-4.6-4.9L64.5,93L62.7,99.4z M64.7,96.6l0.7-2.6l1.8,2L64.7,96.6z M73.8,90.9l0.4,1l1.2-0.7l-0.2-0.5
		c-0.4-1-0.9-1.1-1.9-0.7l-3.2,1.4c-1,0.4-1.2,0.8-0.8,1.8l1.2,2.8c0.4,1,0.9,1.1,1.9,0.7l3.2-1.4c1-0.4,1.2-0.8,0.8-1.8l-0.3-0.6
		l-1.4,0.3l0.5,1.1l-3.3,1.4l-1.4-3.4L73.8,90.9z M80.7,86.6l0.4,0.5l0.9-0.9c0,0,0-0.1-0.1-0.1c-0.6-0.9-1.1-0.9-1.9-0.3l-3.3,2.3
		c-0.9,0.6-1,1-0.4,1.9l1.7,2.5c0.6,0.9,1.1,0.9,2,0.3l3.3-2.3c0.9-0.6,1-1,0.4-1.9L82.6,87l-2.9,2l0.6,0.8l1.8-1.2l0.7,1.1
		l-3.5,2.4l-2.1-3L80.7,86.6z M85.4,89.2l1-1l-0.4-1.4l2.6-2.6l1.4,0.4l1.1-1.1l-6.5-1.7l-0.9,0.9L85.4,89.2z M85.6,85.7l-0.8-2.6
		l2.6,0.8L85.6,85.7z M90.8,75.5l0.5,0.4l0.5-1.2c0,0-0.1-0.1-0.1-0.1c-0.9-0.6-1.3-0.4-1.9,0.4l-2.3,3.3c-0.6,0.9-0.6,1.3,0.3,2
		l2.5,1.7c0.9,0.6,1.3,0.5,1.9-0.4l2.3-3.3c0.6-0.9,0.6-1.3-0.3-2l-1.7-1.1l-2,2.9l0.8,0.6l1.2-1.8l1.1,0.7L91.5,81l-3-2.1
		L90.8,75.5z M94.9,67.3l1,0.5l0.5-1.3l-0.5-0.3c-1-0.5-1.4-0.3-1.9,0.6l-1.6,3c-0.5,1-0.4,1.4,0.5,1.9l2.7,1.4
		c1,0.5,1.4,0.3,1.9-0.6l1.6-3c0.5-1,0.4-1.4-0.5-1.9L98,67.4l-0.9,1.1l1.1,0.6l-1.7,3.2l-3.2-1.7L94.9,67.3z M102,60.3l0.4,0.5
		l0.9-1c0,0-0.1-0.1-0.1-0.1c-0.6-0.8-1.1-0.8-1.9-0.2l-3.2,2.4c-0.9,0.6-1,1.1-0.4,2l1.8,2.5c0.6,0.9,1.1,0.9,2,0.3l3.2-2.4
		c0.9-0.6,1-1.1,0.4-2l-1.2-1.6l-2.8,2.1l0.6,0.8l1.8-1.3l0.8,1l-3.4,2.5l-2.2-3L102,60.3z M106.5,63.2l1.3,0l0.6-1.3l3.7-0.1
		l0.7,1.2l1.5,0l-3.5-5.7l-1.3,0L106.5,63.2z M109,60.8l1.2-2.4l1.3,2.3L109,60.8z"/>
	<g>
		<path class="st4" d="M131.9,25.2c0.9,0,1.7,0.2,2.4,0.6c0.6,0.4,1.3,1.1,1.9,2.3l12.4,22.5c0.1,0.2,0.2,0.5,0.1,0.6
			c-0.1,0.2-0.2,0.2-0.5,0.2h-4.8c-0.4,0-0.7-0.2-0.9-0.5l-2.7-4.8h-17.6l-2.6,4.8c-0.2,0.3-0.5,0.5-0.9,0.5h-4.9
			c-0.3,0-0.5-0.1-0.6-0.2c-0.1-0.2,0-0.4,0.1-0.6L125.7,28c0.6-1.1,1.2-1.9,1.8-2.3c0.6-0.4,1.3-0.6,2.1-0.6H131.9z M124.6,41.7
			h12.9l-6-11c-0.1-0.2-0.2-0.3-0.4-0.3h-0.2c-0.2,0-0.3,0.1-0.4,0.3L124.6,41.7z"/>
		<path class="st4" d="M155.1,25.2c0.5,0,0.8,0.3,0.8,0.8v14.9c0,1,0.1,1.8,0.2,2.5c0.2,0.7,0.4,1.2,0.8,1.6
			c0.4,0.4,0.9,0.7,1.5,0.8c0.6,0.2,1.4,0.2,2.4,0.2h15.2c0.5,0,0.8,0.3,0.8,0.8v3.7c0,0.5-0.3,0.8-0.8,0.8h-15.4
			c-1.9,0-3.5-0.2-4.8-0.5c-1.3-0.3-2.4-0.9-3.2-1.7c-0.8-0.8-1.4-1.8-1.8-3.1c-0.4-1.3-0.6-2.8-0.6-4.6V26c0-0.5,0.3-0.8,0.9-0.8
			H155.1z"/>
		<path class="st4" d="M196.9,25.2c0.9,0,1.7,0.2,2.4,0.6c0.6,0.4,1.3,1.1,1.9,2.3l12.4,22.5c0.1,0.2,0.2,0.5,0.1,0.6
			c-0.1,0.2-0.2,0.2-0.5,0.2h-4.8c-0.4,0-0.7-0.2-0.9-0.5l-2.7-4.8h-17.6l-2.6,4.8c-0.2,0.3-0.5,0.5-0.9,0.5H179
			c-0.3,0-0.5-0.1-0.6-0.2c-0.1-0.2,0-0.4,0.1-0.6L190.8,28c0.6-1.1,1.2-1.9,1.8-2.3c0.6-0.4,1.3-0.6,2.1-0.6H196.9z M189.6,41.7
			h12.9l-6-11c-0.1-0.2-0.2-0.3-0.4-0.3h-0.2c-0.2,0-0.3,0.1-0.4,0.3L189.6,41.7z"/>
		<path class="st4" d="M235.4,25.2c2,0,3.8,0.2,5.2,0.6c1.4,0.4,2.6,1,3.6,1.9c0.9,0.9,1.6,2,2,3.3c0.4,1.3,0.7,2.9,0.7,4.7v5.1
			c0,1.8-0.2,3.4-0.7,4.7c-0.4,1.3-1.1,2.4-2,3.3c-0.9,0.9-2.1,1.5-3.6,1.9c-1.4,0.4-3.2,0.6-5.2,0.6h-17.5c-0.7,0-1.1-0.4-1.1-1.1
			v-24c0-0.7,0.4-1.1,1.1-1.1H235.4z M222.5,45.7c0,0.3,0.2,0.5,0.5,0.5h12.3c1.1,0,2-0.1,2.8-0.3c0.7-0.2,1.4-0.5,1.8-1
			c0.5-0.4,0.8-1,1-1.8c0.2-0.7,0.3-1.7,0.3-2.8v-4.1c0-1.1-0.1-2-0.3-2.8c-0.2-0.7-0.5-1.3-1-1.8c-0.5-0.4-1.1-0.8-1.8-1
			c-0.7-0.2-1.7-0.3-2.8-0.3H223c-0.3,0-0.5,0.2-0.5,0.5V45.7z"/>
		<path class="st4" d="M270.2,25.2c2,0,3.8,0.2,5.2,0.6c1.4,0.4,2.6,1,3.6,1.9c0.9,0.9,1.6,2,2,3.3c0.4,1.3,0.7,2.9,0.7,4.7v5.1
			c0,1.8-0.2,3.4-0.7,4.7c-0.4,1.3-1.1,2.4-2,3.3c-0.9,0.9-2.1,1.5-3.6,1.9c-1.4,0.4-3.2,0.6-5.2,0.6h-17.5c-0.7,0-1.1-0.4-1.1-1.1
			v-24c0-0.7,0.4-1.1,1.1-1.1H270.2z M257.3,45.7c0,0.3,0.2,0.5,0.5,0.5h12.3c1.1,0,2-0.1,2.8-0.3c0.7-0.2,1.4-0.5,1.8-1
			c0.5-0.4,0.8-1,1-1.8c0.2-0.7,0.3-1.7,0.3-2.8v-4.1c0-1.1-0.1-2-0.3-2.8c-0.2-0.7-0.5-1.3-1-1.8c-0.5-0.4-1.1-0.8-1.8-1
			c-0.7-0.2-1.7-0.3-2.8-0.3h-12.3c-0.3,0-0.5,0.2-0.5,0.5V45.7z"/>
		<path class="st4" d="M291.3,25.2c0.5,0,0.8,0.3,0.8,0.8v24.6c0,0.5-0.3,0.8-0.8,0.8h-4c-0.6,0-0.9-0.3-0.9-0.8V26
			c0-0.5,0.3-0.8,0.9-0.8H291.3z"/>
		<path class="st4" d="M303.8,25.2c0.6,0,1.1,0,1.5,0.1c0.4,0.1,0.7,0.2,1,0.3c0.3,0.2,0.6,0.4,0.9,0.7c0.3,0.3,0.6,0.7,0.9,1.1
			L322,45.6c0.1,0.2,0.3,0.3,0.5,0.3h0.3c0.2,0,0.3-0.1,0.3-0.4V26c0-0.5,0.3-0.8,0.8-0.8h3.9c0.5,0,0.8,0.3,0.8,0.8v21.5
			c0,1.5-0.3,2.6-0.8,3.1c-0.5,0.5-1.4,0.8-2.5,0.8h-3.2c-0.6,0-1.1,0-1.4-0.1c-0.4,0-0.7-0.1-1-0.3s-0.6-0.4-0.9-0.7
			c-0.3-0.3-0.6-0.7-1-1.2l-14-18.3c-0.1-0.2-0.3-0.3-0.5-0.3H303c-0.2,0-0.3,0.1-0.3,0.4v19.6c0,0.5-0.3,0.8-0.8,0.8h-3.9
			c-0.6,0-0.9-0.3-0.9-0.8V29.1c0-1.5,0.3-2.6,0.8-3.1c0.5-0.5,1.4-0.8,2.5-0.8H303.8z"/>
	</g>
	<g>
		<path class="st5" d="M62.2,73.9c-5.9,4.5-9.5,7.1-11,7.9c-2.2,1-4.6,1.6-7.2,1.6c-3.9,0-7.2-1.3-9.8-4.1
			c-2.6-2.7-3.8-6.3-3.8-10.7c0-2.8,0.6-5.2,1.9-7.2c1.7-2.8,4.7-5.5,8.9-8c4.2-2.5,11.2-5.5,21-9.1V42c0-5.7-0.9-9.6-2.7-11.7
			c-1.8-2.1-4.4-3.2-7.9-3.2c-2.6,0-4.7,0.7-6.2,2.1c-1.6,1.4-2.4,3-2.4,4.9l0.1,3.6c0,1.9-0.5,3.4-1.5,4.4c-1,1-2.3,1.6-3.8,1.6
			c-1.5,0-2.8-0.5-3.8-1.6c-1-1.1-1.5-2.6-1.5-4.4c0-3.6,1.8-6.9,5.5-9.8c3.7-3,8.8-4.5,15.4-4.5c5.1,0,9.2,0.9,12.5,2.6
			c2.5,1.3,4.3,3.3,5.4,6c0.7,1.8,1.1,5.4,1.1,11v19.4c0,5.4,0.1,8.8,0.3,10c0.2,1.2,0.5,2,1,2.5c0.5,0.4,1,0.6,1.7,0.6
			c0.7,0,1.2-0.1,1.7-0.4c0.9-0.5,2.6-2.1,5-4.5v3.5c-4.7,6.2-9.1,9.3-13.3,9.3c-2,0-3.7-0.7-4.9-2.1C62.9,79.7,62.3,77.3,62.2,73.9
			z M62.2,69.8V48.1c-6.3,2.5-10.3,4.3-12.2,5.3c-3.3,1.8-5.6,3.7-7,5.7c-1.4,2-2.1,4.2-2.1,6.5c0,3,0.9,5.5,2.7,7.4
			c1.8,2,3.8,3,6.2,3C52.9,76.1,57.1,74,62.2,69.8z"/>
	</g>
	<circle class="st5" cx="85.6" cy="69.4" r="1.8"/>
</g>
<g>
	<path class="st4" d="M125,68.7c1.4,0,2.3,0.3,2.9,0.8c0.6,0.5,0.9,1.4,0.9,2.4v0.9c0,1.1-0.4,1.9-1.3,2.5c0.9,0.5,1.4,1.4,1.4,2.5
		v1.1c0,0.5-0.1,1-0.2,1.4c-0.1,0.4-0.3,0.8-0.6,1.1s-0.6,0.5-1.1,0.7s-1,0.2-1.7,0.2h-11.7c-0.4,0-0.6-0.2-0.6-0.6V69.3
		c0-0.4,0.2-0.6,0.6-0.6H125z M116.1,74.5h8.1c0.7,0,1.1-0.1,1.3-0.3c0.2-0.2,0.4-0.5,0.4-0.9v-0.7c0-0.4-0.1-0.7-0.3-0.9
		c-0.2-0.2-0.6-0.3-1.1-0.3h-8.1c-0.2,0-0.3,0.1-0.3,0.3V74.5z M116.1,76.6v2.9c0,0.2,0.1,0.3,0.3,0.3h8.1c0.5,0,0.9-0.1,1.1-0.3
		c0.2-0.2,0.3-0.5,0.3-0.9v-0.7c0-0.4-0.1-0.7-0.4-0.9s-0.7-0.3-1.3-0.3H116.1z"/>
	<path class="st4" d="M133.8,68.7c0.3,0,0.4,0.1,0.4,0.4v12.9c0,0.3-0.1,0.4-0.4,0.4h-2.1c-0.3,0-0.5-0.1-0.5-0.4V69.2
		c0-0.3,0.2-0.4,0.5-0.4H133.8z"/>
	<path class="st4" d="M148.3,68.7c1,0,1.8,0.1,2.5,0.3s1.3,0.5,1.7,0.9c0.4,0.4,0.8,0.9,1,1.6c0.2,0.7,0.3,1.5,0.3,2.4v3.4
		c0,0.9-0.1,1.7-0.3,2.4c-0.2,0.7-0.5,1.2-1,1.6c-0.4,0.4-1,0.7-1.7,0.9c-0.7,0.2-1.6,0.3-2.5,0.3h-6.1c-1,0-1.8-0.1-2.5-0.3
		c-0.7-0.2-1.3-0.5-1.7-0.9c-0.4-0.4-0.8-1-1-1.6c-0.2-0.7-0.3-1.5-0.3-2.4v-3.4c0-0.9,0.1-1.7,0.3-2.4c0.2-0.7,0.5-1.2,1-1.6
		s1-0.7,1.7-0.9c0.7-0.2,1.5-0.3,2.5-0.3H148.3z M139.7,77.1c0,0.5,0,0.9,0.1,1.3c0.1,0.3,0.2,0.6,0.4,0.8c0.2,0.2,0.5,0.3,0.8,0.4
		c0.3,0.1,0.8,0.1,1.3,0.1h5.8c0.5,0,0.9,0,1.3-0.1c0.3-0.1,0.6-0.2,0.8-0.4c0.2-0.2,0.3-0.5,0.4-0.8c0.1-0.3,0.1-0.8,0.1-1.3v-3
		c0-0.5,0-0.9-0.1-1.3s-0.2-0.6-0.4-0.8c-0.2-0.2-0.5-0.3-0.8-0.4s-0.8-0.1-1.3-0.1h-5.8c-0.5,0-0.9,0-1.3,0.1
		c-0.3,0.1-0.6,0.2-0.8,0.4c-0.2,0.2-0.3,0.5-0.4,0.8c-0.1,0.3-0.1,0.8-0.1,1.3V77.1z"/>
	<path class="st4" d="M158.8,68.7c0.3,0,0.4,0.1,0.4,0.4v12.9c0,0.3-0.1,0.4-0.4,0.4h-2.1c-0.3,0-0.5-0.1-0.5-0.4V69.2
		c0-0.3,0.2-0.4,0.5-0.4H158.8z"/>
	<path class="st4" d="M165.4,68.7c0.3,0,0.6,0,0.8,0s0.4,0.1,0.6,0.2c0.2,0.1,0.3,0.2,0.5,0.4c0.1,0.2,0.3,0.4,0.5,0.6l7.3,9.6
		c0.1,0.1,0.1,0.1,0.3,0.1h0.2c0.1,0,0.2-0.1,0.2-0.2V69.2c0-0.3,0.1-0.4,0.4-0.4h2.1c0.3,0,0.4,0.1,0.4,0.4v11.3
		c0,0.8-0.1,1.3-0.4,1.6s-0.7,0.4-1.3,0.4H175c-0.3,0-0.6,0-0.8,0c-0.2,0-0.4-0.1-0.5-0.2c-0.2-0.1-0.3-0.2-0.5-0.3
		s-0.3-0.4-0.5-0.6l-7.3-9.6c-0.1-0.1-0.2-0.1-0.3-0.1H165c-0.1,0-0.2,0.1-0.2,0.2v10.3c0,0.3-0.1,0.4-0.4,0.4h-2.1
		c-0.3,0-0.5-0.1-0.5-0.4V70.8c0-0.8,0.1-1.3,0.4-1.6c0.3-0.3,0.7-0.4,1.3-0.4H165.4z"/>
	<path class="st4" d="M195.1,68.7c0.3,0,0.5,0.1,0.5,0.4V71c0,0.3-0.2,0.4-0.5,0.4h-8.5c-0.5,0-0.9,0-1.3,0.1
		c-0.3,0.1-0.6,0.2-0.8,0.4c-0.2,0.2-0.3,0.5-0.4,0.8c-0.1,0.3-0.1,0.8-0.1,1.3v0.4H195c0.3,0,0.4,0.1,0.4,0.4v1.6
		c0,0.3-0.1,0.4-0.4,0.4H184v5.1c0,0.3-0.1,0.4-0.4,0.4h-2.1c-0.3,0-0.5-0.1-0.5-0.4v-8.2c0-0.9,0.1-1.7,0.3-2.4
		c0.2-0.7,0.5-1.2,1-1.6s1-0.7,1.7-0.9c0.7-0.2,1.5-0.3,2.5-0.3H195.1z"/>
	<path class="st4" d="M209,68.7c1,0,1.8,0.1,2.5,0.3s1.3,0.5,1.7,0.9c0.4,0.4,0.8,0.9,1,1.6c0.2,0.7,0.3,1.5,0.3,2.4v3.4
		c0,0.9-0.1,1.7-0.3,2.4c-0.2,0.7-0.5,1.2-1,1.6c-0.4,0.4-1,0.7-1.7,0.9c-0.7,0.2-1.6,0.3-2.5,0.3h-6.1c-1,0-1.8-0.1-2.5-0.3
		c-0.7-0.2-1.3-0.5-1.7-0.9c-0.4-0.4-0.8-1-1-1.6c-0.2-0.7-0.3-1.5-0.3-2.4v-3.4c0-0.9,0.1-1.7,0.3-2.4c0.2-0.7,0.5-1.2,1-1.6
		s1-0.7,1.7-0.9c0.7-0.2,1.5-0.3,2.5-0.3H209z M200.4,77.1c0,0.5,0,0.9,0.1,1.3c0.1,0.3,0.2,0.6,0.4,0.8c0.2,0.2,0.5,0.3,0.8,0.4
		c0.3,0.1,0.8,0.1,1.3,0.1h5.8c0.5,0,0.9,0,1.3-0.1c0.3-0.1,0.6-0.2,0.8-0.4c0.2-0.2,0.3-0.5,0.4-0.8c0.1-0.3,0.1-0.8,0.1-1.3v-3
		c0-0.5,0-0.9-0.1-1.3s-0.2-0.6-0.4-0.8c-0.2-0.2-0.5-0.3-0.8-0.4s-0.8-0.1-1.3-0.1H203c-0.5,0-0.9,0-1.3,0.1
		c-0.3,0.1-0.6,0.2-0.8,0.4c-0.2,0.2-0.3,0.5-0.4,0.8c-0.1,0.3-0.1,0.8-0.1,1.3V77.1z"/>
	<path class="st4" d="M228.1,68.7c1.5,0,2.6,0.3,3.2,1s1,1.7,1,3v1.1c0,1.1-0.2,2-0.7,2.7c-0.5,0.7-1.2,1.1-2.2,1.3l3.4,4.2
		c0.1,0.1,0.1,0.2,0.1,0.3s-0.1,0.2-0.3,0.2H230c-0.2,0-0.3,0-0.4-0.1c-0.1,0-0.1-0.1-0.2-0.2l-3.1-4.1H220v3.9
		c0,0.3-0.1,0.4-0.4,0.4h-2.1c-0.3,0-0.5-0.1-0.5-0.4V69.3c0-0.4,0.2-0.6,0.6-0.6H228.1z M220,75.8h7.5c0.7,0,1.1-0.1,1.4-0.4
		c0.3-0.3,0.4-0.7,0.4-1.3v-0.8c0-0.6-0.1-1-0.4-1.3c-0.3-0.3-0.7-0.4-1.4-0.4h-7.3c-0.2,0-0.3,0.1-0.3,0.2V75.8z"/>
	<path class="st4" d="M238.7,68.7c0.3,0,0.5,0,0.7,0.1s0.4,0.1,0.6,0.2c0.2,0.1,0.3,0.3,0.4,0.5c0.1,0.2,0.3,0.4,0.4,0.8l4.1,9.5
		c0.1,0.1,0.1,0.2,0.3,0.2h0.2c0.1,0,0.2-0.1,0.3-0.2l4.1-9.5c0.1-0.3,0.3-0.6,0.4-0.8c0.1-0.2,0.3-0.3,0.4-0.5
		c0.2-0.1,0.3-0.2,0.5-0.2s0.4-0.1,0.7-0.1h2.1c0.7,0,1.1,0.2,1.4,0.5s0.4,0.8,0.4,1.6v11.3c0,0.3-0.2,0.4-0.5,0.4h-2
		c-0.3,0-0.4-0.1-0.4-0.4V71.8c0-0.1-0.1-0.2-0.2-0.2h-0.2c-0.1,0-0.2,0.1-0.3,0.2l-4,8.8c-0.2,0.4-0.3,0.7-0.5,0.9
		c-0.2,0.2-0.3,0.4-0.5,0.6c-0.2,0.2-0.4,0.3-0.6,0.3c-0.2,0.1-0.5,0.1-0.9,0.1h-0.9c-0.3,0-0.6,0-0.9-0.1c-0.2-0.1-0.5-0.2-0.6-0.3
		c-0.2-0.2-0.4-0.4-0.5-0.6c-0.2-0.2-0.3-0.5-0.5-0.9l-4-8.8c0-0.1-0.1-0.2-0.3-0.2h-0.2c-0.1,0-0.2,0.1-0.2,0.2v10.3
		c0,0.3-0.1,0.4-0.4,0.4h-2c-0.3,0-0.5-0.1-0.5-0.4V70.8c0-0.7,0.1-1.3,0.4-1.6s0.7-0.5,1.4-0.5H238.7z"/>
	<path class="st4" d="M267,68.7c0.5,0,0.9,0.1,1.3,0.3c0.3,0.2,0.7,0.6,1,1.2l6.5,11.8c0.1,0.1,0.1,0.2,0,0.3s-0.1,0.1-0.3,0.1h-2.5
		c-0.2,0-0.4-0.1-0.5-0.3l-1.4-2.5H262l-1.4,2.5c-0.1,0.2-0.2,0.3-0.5,0.3h-2.6c-0.2,0-0.3,0-0.3-0.1s0-0.2,0-0.3l6.5-11.8
		c0.3-0.6,0.6-1,1-1.2s0.7-0.3,1.1-0.3H267z M263.2,77.4h6.8l-3.1-5.8c-0.1-0.1-0.1-0.1-0.2-0.1h-0.1c-0.1,0-0.2,0-0.2,0.1
		L263.2,77.4z"/>
	<path class="st4" d="M289.9,68.7c0.3,0,0.5,0.1,0.5,0.4v1.9c0,0.3-0.2,0.5-0.5,0.5h-6.2v10.5c0,0.3-0.1,0.4-0.4,0.4h-2.1
		c-0.3,0-0.4-0.1-0.4-0.4V71.6h-6.2c-0.3,0-0.5-0.2-0.5-0.5v-1.9c0-0.3,0.2-0.4,0.5-0.4H289.9z"/>
	<path class="st4" d="M294.7,68.7c0.3,0,0.4,0.1,0.4,0.4v12.9c0,0.3-0.1,0.4-0.4,0.4h-2.1c-0.3,0-0.5-0.1-0.5-0.4V69.2
		c0-0.3,0.2-0.4,0.5-0.4H294.7z"/>
	<path class="st4" d="M312,68.7c0.3,0,0.4,0.1,0.4,0.4v1.9c0,0.3-0.1,0.5-0.4,0.5h-8.8c-0.5,0-0.9,0-1.3,0.1
		c-0.3,0.1-0.6,0.2-0.8,0.4c-0.2,0.2-0.3,0.5-0.4,0.8c-0.1,0.3-0.1,0.8-0.1,1.3V77c0,0.5,0,1,0.1,1.3c0.1,0.3,0.2,0.6,0.4,0.8
		c0.2,0.2,0.5,0.3,0.8,0.4c0.3,0.1,0.8,0.1,1.3,0.1h8.8c0.3,0,0.4,0.1,0.4,0.4v1.9c0,0.3-0.1,0.4-0.4,0.4h-8.9c-1,0-1.8-0.1-2.5-0.3
		c-0.7-0.2-1.3-0.5-1.7-0.9c-0.4-0.4-0.8-1-1-1.6c-0.2-0.7-0.3-1.5-0.3-2.4v-3.4c0-0.9,0.1-1.7,0.3-2.4c0.2-0.7,0.5-1.2,1-1.6
		s1-0.7,1.7-0.9c0.7-0.2,1.5-0.3,2.5-0.3H312z"/>
	<path class="st4" d="M328.2,68.7c0.3,0,0.4,0.1,0.4,0.4V71c0,0.3-0.1,0.4-0.4,0.4h-9.9c-0.4,0-0.7,0.1-0.8,0.3
		c-0.2,0.2-0.2,0.5-0.2,0.8v0.7c0,0.7,0.3,1.1,1,1.1h7.4c1.1,0,2,0.3,2.6,0.9c0.6,0.6,0.9,1.4,0.9,2.5v1.6c0,1-0.3,1.7-0.8,2.3
		s-1.4,0.9-2.6,0.9h-10.9c-0.3,0-0.5-0.1-0.5-0.4v-1.9c0-0.3,0.2-0.4,0.5-0.4h10.3c0.4,0,0.7-0.1,0.8-0.3c0.2-0.2,0.2-0.5,0.2-0.8
		v-0.8c0-0.7-0.3-1.1-1-1.1h-7.4c-1.1,0-2-0.3-2.6-0.9c-0.6-0.6-0.9-1.4-0.9-2.5V72c0-1,0.3-1.7,0.8-2.3s1.4-0.9,2.6-0.9H328.2z"/>
</g>
</svg>
